<mxfile host="app.diagrams.net" modified="2023-02-14T06:27:24.006Z" agent="5.0 (Windows NT 10.0; Win64; x64) AppleWebKit/537.36 (KHTML, like Gecko) Chrome/110.0.0.0 Safari/537.36 Edg/110.0.1587.41" etag="TnfP4R7f96SqDisWTuN5" version="20.8.20" type="github">
  <diagram id="0DQFvvIyCcvc1jp5ZEeW" name="第 1 页">
    <mxGraphModel dx="1221" dy="783" grid="0" gridSize="10" guides="1" tooltips="1" connect="1" arrows="1" fold="1" page="1" pageScale="1" pageWidth="5500" pageHeight="5500" math="0" shadow="0">
      <root>
        <mxCell id="0" />
        <mxCell id="1" parent="0" />
        <mxCell id="LhJwVfTSf5qskMMKVz_--1" value="" style="rounded=0;whiteSpace=wrap;html=1;fillColor=none;" parent="1" vertex="1">
          <mxGeometry x="75.5" y="1903" width="696.75" height="366" as="geometry" />
        </mxCell>
        <mxCell id="8VWyutqRf-sVDmm4FMnL-65" value="" style="rounded=0;whiteSpace=wrap;html=1;fillColor=none;" parent="1" vertex="1">
          <mxGeometry x="75.25" y="1483" width="696.75" height="366" as="geometry" />
        </mxCell>
        <mxCell id="8VWyutqRf-sVDmm4FMnL-53" value="" style="rounded=0;whiteSpace=wrap;html=1;dashed=1;fillColor=none;" parent="1" vertex="1">
          <mxGeometry x="272" y="1261" width="332" height="179" as="geometry" />
        </mxCell>
        <mxCell id="8VWyutqRf-sVDmm4FMnL-54" value="" style="rounded=0;whiteSpace=wrap;html=1;fillColor=none;" parent="1" vertex="1">
          <mxGeometry x="75.5" y="803" width="749.5" height="657" as="geometry" />
        </mxCell>
        <mxCell id="r_hynLRIS7Jt0g9dWzzB-1" value="登录页" style="rounded=0;whiteSpace=wrap;html=1;" parent="1" vertex="1">
          <mxGeometry x="240" y="120" width="80" height="40" as="geometry" />
        </mxCell>
        <mxCell id="r_hynLRIS7Jt0g9dWzzB-3" value="配置页" style="rounded=0;whiteSpace=wrap;html=1;" parent="1" vertex="1">
          <mxGeometry x="240" y="240" width="80" height="40" as="geometry" />
        </mxCell>
        <mxCell id="r_hynLRIS7Jt0g9dWzzB-4" value="主页" style="rounded=0;whiteSpace=wrap;html=1;" parent="1" vertex="1">
          <mxGeometry x="240" y="180" width="80" height="40" as="geometry" />
        </mxCell>
        <mxCell id="r_hynLRIS7Jt0g9dWzzB-5" value="列表页" style="rounded=0;whiteSpace=wrap;html=1;" parent="1" vertex="1">
          <mxGeometry x="240" y="300" width="80" height="40" as="geometry" />
        </mxCell>
        <mxCell id="r_hynLRIS7Jt0g9dWzzB-6" value="页面" style="rounded=0;whiteSpace=wrap;html=1;" parent="1" vertex="1">
          <mxGeometry x="80" y="200" width="80" height="40" as="geometry" />
        </mxCell>
        <mxCell id="r_hynLRIS7Jt0g9dWzzB-7" value="功能" style="rounded=0;whiteSpace=wrap;html=1;" parent="1" vertex="1">
          <mxGeometry x="80" y="600" width="80" height="40" as="geometry" />
        </mxCell>
        <mxCell id="r_hynLRIS7Jt0g9dWzzB-8" value="" style="rounded=0;whiteSpace=wrap;html=1;fillColor=none;" parent="1" vertex="1">
          <mxGeometry x="40" y="80" width="320" height="320" as="geometry" />
        </mxCell>
        <mxCell id="r_hynLRIS7Jt0g9dWzzB-9" value="登录&lt;span style=&quot;color: rgba(0, 0, 0, 0); font-family: monospace; font-size: 0px; text-align: start;&quot;&gt;%3CmxGraphModel%3E%3Croot%3E%3CmxCell%20id%3D%220%22%2F%3E%3CmxCell%20id%3D%221%22%20parent%3D%220%22%2F%3E%3CmxCell%20id%3D%222%22%20value%3D%22%E7%99%BB%E5%BD%95%E9%A1%B5%22%20style%3D%22rounded%3D0%3BwhiteSpace%3Dwrap%3Bhtml%3D1%3B%22%20vertex%3D%221%22%20parent%3D%221%22%3E%3CmxGeometry%20x%3D%22240%22%20y%3D%22120%22%20width%3D%2280%22%20height%3D%2240%22%20as%3D%22geometry%22%2F%3E%3C%2FmxCell%3E%3C%2Froot%3E%3C%2FmxGraphModel%3E&lt;/span&gt;" style="rounded=0;whiteSpace=wrap;html=1;" parent="1" vertex="1">
          <mxGeometry x="240" y="480" width="80" height="40" as="geometry" />
        </mxCell>
        <mxCell id="r_hynLRIS7Jt0g9dWzzB-10" value="注销" style="rounded=0;whiteSpace=wrap;html=1;" parent="1" vertex="1">
          <mxGeometry x="240" y="540" width="80" height="40" as="geometry" />
        </mxCell>
        <mxCell id="r_hynLRIS7Jt0g9dWzzB-11" value="注册节点" style="rounded=0;whiteSpace=wrap;html=1;" parent="1" vertex="1">
          <mxGeometry x="240" y="600" width="80" height="40" as="geometry" />
        </mxCell>
        <mxCell id="r_hynLRIS7Jt0g9dWzzB-12" value="删除节点" style="rounded=0;whiteSpace=wrap;html=1;" parent="1" vertex="1">
          <mxGeometry x="240" y="660" width="80" height="40" as="geometry" />
        </mxCell>
        <mxCell id="r_hynLRIS7Jt0g9dWzzB-13" value="" style="rounded=0;whiteSpace=wrap;html=1;fillColor=none;" parent="1" vertex="1">
          <mxGeometry x="40" y="440" width="320" height="320" as="geometry" />
        </mxCell>
        <mxCell id="8VWyutqRf-sVDmm4FMnL-1" value="平台用户" style="rounded=0;whiteSpace=wrap;html=1;" parent="1" vertex="1">
          <mxGeometry x="480" y="820" width="120" height="60" as="geometry" />
        </mxCell>
        <mxCell id="8VWyutqRf-sVDmm4FMnL-8" style="edgeStyle=orthogonalEdgeStyle;rounded=0;orthogonalLoop=1;jettySize=auto;html=1;" parent="1" source="8VWyutqRf-sVDmm4FMnL-2" edge="1">
          <mxGeometry relative="1" as="geometry">
            <mxPoint x="450" y="1223" as="targetPoint" />
          </mxGeometry>
        </mxCell>
        <mxCell id="8VWyutqRf-sVDmm4FMnL-37" style="edgeStyle=orthogonalEdgeStyle;orthogonalLoop=1;jettySize=auto;html=1;entryX=0;entryY=0.5;entryDx=0;entryDy=0;rounded=0;" parent="1" source="8VWyutqRf-sVDmm4FMnL-2" target="8VWyutqRf-sVDmm4FMnL-1" edge="1">
          <mxGeometry relative="1" as="geometry" />
        </mxCell>
        <mxCell id="8VWyutqRf-sVDmm4FMnL-2" value="用户平台" style="rounded=0;whiteSpace=wrap;html=1;" parent="1" vertex="1">
          <mxGeometry x="390" y="930" width="120" height="60" as="geometry" />
        </mxCell>
        <mxCell id="8VWyutqRf-sVDmm4FMnL-44" style="edgeStyle=orthogonalEdgeStyle;rounded=0;orthogonalLoop=1;jettySize=auto;html=1;entryX=1;entryY=0.5;entryDx=0;entryDy=0;" parent="1" source="8VWyutqRf-sVDmm4FMnL-3" target="8VWyutqRf-sVDmm4FMnL-1" edge="1">
          <mxGeometry relative="1" as="geometry" />
        </mxCell>
        <mxCell id="8VWyutqRf-sVDmm4FMnL-45" style="edgeStyle=orthogonalEdgeStyle;rounded=0;orthogonalLoop=1;jettySize=auto;html=1;" parent="1" source="8VWyutqRf-sVDmm4FMnL-3" edge="1">
          <mxGeometry relative="1" as="geometry">
            <mxPoint x="630" y="1325" as="targetPoint" />
          </mxGeometry>
        </mxCell>
        <mxCell id="8VWyutqRf-sVDmm4FMnL-3" value="管理平台" style="rounded=0;whiteSpace=wrap;html=1;" parent="1" vertex="1">
          <mxGeometry x="570" y="930" width="120" height="60" as="geometry" />
        </mxCell>
        <mxCell id="8VWyutqRf-sVDmm4FMnL-26" style="edgeStyle=orthogonalEdgeStyle;rounded=0;orthogonalLoop=1;jettySize=auto;html=1;" parent="1" source="8VWyutqRf-sVDmm4FMnL-4" edge="1">
          <mxGeometry relative="1" as="geometry">
            <mxPoint x="450" y="1050" as="targetPoint" />
          </mxGeometry>
        </mxCell>
        <mxCell id="8VWyutqRf-sVDmm4FMnL-4" value="浏览用户" style="rounded=0;whiteSpace=wrap;html=1;" parent="1" vertex="1">
          <mxGeometry x="280" y="1020" width="120" height="60" as="geometry" />
        </mxCell>
        <mxCell id="8VWyutqRf-sVDmm4FMnL-27" style="edgeStyle=orthogonalEdgeStyle;rounded=0;orthogonalLoop=1;jettySize=auto;html=1;" parent="1" source="8VWyutqRf-sVDmm4FMnL-6" edge="1">
          <mxGeometry relative="1" as="geometry">
            <mxPoint x="450" y="1150" as="targetPoint" />
          </mxGeometry>
        </mxCell>
        <mxCell id="8VWyutqRf-sVDmm4FMnL-6" value="注册用户" style="rounded=0;whiteSpace=wrap;html=1;" parent="1" vertex="1">
          <mxGeometry x="280" y="1120" width="120" height="60" as="geometry" />
        </mxCell>
        <mxCell id="8VWyutqRf-sVDmm4FMnL-34" style="edgeStyle=orthogonalEdgeStyle;rounded=0;orthogonalLoop=1;jettySize=auto;html=1;entryX=1;entryY=0.5;entryDx=0;entryDy=0;dashed=1;" parent="1" source="8VWyutqRf-sVDmm4FMnL-7" target="8VWyutqRf-sVDmm4FMnL-25" edge="1">
          <mxGeometry relative="1" as="geometry">
            <Array as="points">
              <mxPoint x="431" y="1300.5" />
              <mxPoint x="431" y="1350.5" />
            </Array>
          </mxGeometry>
        </mxCell>
        <mxCell id="8VWyutqRf-sVDmm4FMnL-7" value="总部&lt;font style=&quot;font-size: 20px;&quot;&gt;|&lt;/font&gt;总队" style="rounded=0;whiteSpace=wrap;html=1;dashed=1;" parent="1" vertex="1">
          <mxGeometry x="471" y="1270.5" width="120" height="60" as="geometry" />
        </mxCell>
        <mxCell id="8VWyutqRf-sVDmm4FMnL-62" style="edgeStyle=orthogonalEdgeStyle;rounded=0;orthogonalLoop=1;jettySize=auto;html=1;exitX=0.5;exitY=1;exitDx=0;exitDy=0;entryX=0.5;entryY=0;entryDx=0;entryDy=0;fontSize=20;" parent="1" source="8VWyutqRf-sVDmm4FMnL-16" target="8VWyutqRf-sVDmm4FMnL-18" edge="1">
          <mxGeometry relative="1" as="geometry" />
        </mxCell>
        <mxCell id="8VWyutqRf-sVDmm4FMnL-63" style="edgeStyle=orthogonalEdgeStyle;rounded=0;orthogonalLoop=1;jettySize=auto;html=1;exitX=0.5;exitY=1;exitDx=0;exitDy=0;entryX=0.5;entryY=0;entryDx=0;entryDy=0;fontSize=20;" parent="1" source="8VWyutqRf-sVDmm4FMnL-16" target="8VWyutqRf-sVDmm4FMnL-17" edge="1">
          <mxGeometry relative="1" as="geometry" />
        </mxCell>
        <mxCell id="8VWyutqRf-sVDmm4FMnL-16" value="平台页面" style="rounded=0;whiteSpace=wrap;html=1;" parent="1" vertex="1">
          <mxGeometry x="360" y="1506" width="120" height="60" as="geometry" />
        </mxCell>
        <mxCell id="8VWyutqRf-sVDmm4FMnL-20" value="" style="edgeStyle=orthogonalEdgeStyle;rounded=0;orthogonalLoop=1;jettySize=auto;html=1;" parent="1" source="8VWyutqRf-sVDmm4FMnL-17" target="8VWyutqRf-sVDmm4FMnL-19" edge="1">
          <mxGeometry relative="1" as="geometry" />
        </mxCell>
        <mxCell id="8VWyutqRf-sVDmm4FMnL-22" style="edgeStyle=orthogonalEdgeStyle;rounded=0;orthogonalLoop=1;jettySize=auto;html=1;entryX=0.5;entryY=0;entryDx=0;entryDy=0;" parent="1" source="8VWyutqRf-sVDmm4FMnL-17" target="8VWyutqRf-sVDmm4FMnL-21" edge="1">
          <mxGeometry relative="1" as="geometry" />
        </mxCell>
        <mxCell id="8VWyutqRf-sVDmm4FMnL-17" value="用户主站平台页面" style="rounded=0;whiteSpace=wrap;html=1;" parent="1" vertex="1">
          <mxGeometry x="230" y="1626" width="120" height="60" as="geometry" />
        </mxCell>
        <mxCell id="8VWyutqRf-sVDmm4FMnL-61" style="edgeStyle=orthogonalEdgeStyle;rounded=0;orthogonalLoop=1;jettySize=auto;html=1;fontSize=20;" parent="1" source="8VWyutqRf-sVDmm4FMnL-18" target="8VWyutqRf-sVDmm4FMnL-59" edge="1">
          <mxGeometry relative="1" as="geometry" />
        </mxCell>
        <mxCell id="8VWyutqRf-sVDmm4FMnL-68" style="edgeStyle=orthogonalEdgeStyle;rounded=0;orthogonalLoop=1;jettySize=auto;html=1;exitX=0.5;exitY=1;exitDx=0;exitDy=0;entryX=0.5;entryY=0;entryDx=0;entryDy=0;fontSize=20;" parent="1" source="8VWyutqRf-sVDmm4FMnL-18" target="8VWyutqRf-sVDmm4FMnL-67" edge="1">
          <mxGeometry relative="1" as="geometry" />
        </mxCell>
        <mxCell id="8VWyutqRf-sVDmm4FMnL-18" value="后端管理平台页面" style="rounded=0;whiteSpace=wrap;html=1;" parent="1" vertex="1">
          <mxGeometry x="490" y="1626" width="120" height="60" as="geometry" />
        </mxCell>
        <mxCell id="8VWyutqRf-sVDmm4FMnL-19" value="用户前台页面" style="rounded=0;whiteSpace=wrap;html=1;" parent="1" vertex="1">
          <mxGeometry x="130" y="1766" width="120" height="60" as="geometry" />
        </mxCell>
        <mxCell id="8VWyutqRf-sVDmm4FMnL-21" value="用户后台页面" style="rounded=0;whiteSpace=wrap;html=1;" parent="1" vertex="1">
          <mxGeometry x="331" y="1766" width="120" height="60" as="geometry" />
        </mxCell>
        <mxCell id="8VWyutqRf-sVDmm4FMnL-36" style="edgeStyle=orthogonalEdgeStyle;orthogonalLoop=1;jettySize=auto;html=1;exitX=0.5;exitY=0;exitDx=0;exitDy=0;entryX=0.5;entryY=1;entryDx=0;entryDy=0;curved=1;dashed=1;" parent="1" source="8VWyutqRf-sVDmm4FMnL-25" target="8VWyutqRf-sVDmm4FMnL-6" edge="1">
          <mxGeometry relative="1" as="geometry" />
        </mxCell>
        <mxCell id="8VWyutqRf-sVDmm4FMnL-25" value="组织/战队" style="rounded=0;whiteSpace=wrap;html=1;dashed=1;" parent="1" vertex="1">
          <mxGeometry x="281" y="1320.5" width="120" height="60" as="geometry" />
        </mxCell>
        <mxCell id="8VWyutqRf-sVDmm4FMnL-58" style="edgeStyle=orthogonalEdgeStyle;rounded=0;orthogonalLoop=1;jettySize=auto;html=1;exitX=1;exitY=0.5;exitDx=0;exitDy=0;entryX=0;entryY=0.5;entryDx=0;entryDy=0;fontSize=20;" parent="1" source="8VWyutqRf-sVDmm4FMnL-28" target="8VWyutqRf-sVDmm4FMnL-6" edge="1">
          <mxGeometry relative="1" as="geometry" />
        </mxCell>
        <mxCell id="8VWyutqRf-sVDmm4FMnL-28" value="VIP用户" style="rounded=0;whiteSpace=wrap;html=1;" parent="1" vertex="1">
          <mxGeometry x="117" y="1207" width="120" height="60" as="geometry" />
        </mxCell>
        <mxCell id="8VWyutqRf-sVDmm4FMnL-30" style="edgeStyle=orthogonalEdgeStyle;rounded=0;orthogonalLoop=1;jettySize=auto;html=1;entryX=0;entryY=0.5;entryDx=0;entryDy=0;" parent="1" source="8VWyutqRf-sVDmm4FMnL-29" target="8VWyutqRf-sVDmm4FMnL-6" edge="1">
          <mxGeometry relative="1" as="geometry" />
        </mxCell>
        <mxCell id="8VWyutqRf-sVDmm4FMnL-29" value="普通用户" style="rounded=0;whiteSpace=wrap;html=1;" parent="1" vertex="1">
          <mxGeometry x="117" y="1033" width="120" height="60" as="geometry" />
        </mxCell>
        <mxCell id="8VWyutqRf-sVDmm4FMnL-35" style="edgeStyle=orthogonalEdgeStyle;rounded=0;orthogonalLoop=1;jettySize=auto;html=1;entryX=1;entryY=0.5;entryDx=0;entryDy=0;dashed=1;" parent="1" source="8VWyutqRf-sVDmm4FMnL-33" target="8VWyutqRf-sVDmm4FMnL-25" edge="1">
          <mxGeometry relative="1" as="geometry">
            <mxPoint x="431" y="1350.5" as="targetPoint" />
            <Array as="points">
              <mxPoint x="431" y="1400.5" />
              <mxPoint x="431" y="1350.5" />
            </Array>
          </mxGeometry>
        </mxCell>
        <mxCell id="8VWyutqRf-sVDmm4FMnL-33" value="下级单位&lt;font style=&quot;font-size: 20px;&quot;&gt;|&lt;/font&gt;分队" style="rounded=0;whiteSpace=wrap;html=1;dashed=1;" parent="1" vertex="1">
          <mxGeometry x="471" y="1370.5" width="120" height="60" as="geometry" />
        </mxCell>
        <mxCell id="8VWyutqRf-sVDmm4FMnL-48" style="edgeStyle=orthogonalEdgeStyle;rounded=0;orthogonalLoop=1;jettySize=auto;html=1;" parent="1" source="8VWyutqRf-sVDmm4FMnL-42" edge="1">
          <mxGeometry relative="1" as="geometry">
            <mxPoint x="630" y="1150" as="targetPoint" />
          </mxGeometry>
        </mxCell>
        <mxCell id="8VWyutqRf-sVDmm4FMnL-42" value="平台监控团队" style="rounded=0;whiteSpace=wrap;html=1;" parent="1" vertex="1">
          <mxGeometry x="680" y="1120" width="120" height="60" as="geometry" />
        </mxCell>
        <mxCell id="8VWyutqRf-sVDmm4FMnL-46" style="edgeStyle=orthogonalEdgeStyle;rounded=0;orthogonalLoop=1;jettySize=auto;html=1;" parent="1" source="8VWyutqRf-sVDmm4FMnL-43" edge="1">
          <mxGeometry relative="1" as="geometry">
            <mxPoint x="630" y="1050" as="targetPoint" />
          </mxGeometry>
        </mxCell>
        <mxCell id="8VWyutqRf-sVDmm4FMnL-43" value="平台运营团队" style="rounded=0;whiteSpace=wrap;html=1;" parent="1" vertex="1">
          <mxGeometry x="680" y="1020" width="120" height="60" as="geometry" />
        </mxCell>
        <mxCell id="8VWyutqRf-sVDmm4FMnL-50" style="edgeStyle=orthogonalEdgeStyle;rounded=0;orthogonalLoop=1;jettySize=auto;html=1;" parent="1" source="8VWyutqRf-sVDmm4FMnL-49" edge="1">
          <mxGeometry relative="1" as="geometry">
            <mxPoint x="630" y="1250" as="targetPoint" />
          </mxGeometry>
        </mxCell>
        <mxCell id="8VWyutqRf-sVDmm4FMnL-49" value="平台配置团队" style="rounded=0;whiteSpace=wrap;html=1;" parent="1" vertex="1">
          <mxGeometry x="680" y="1220" width="120" height="60" as="geometry" />
        </mxCell>
        <mxCell id="8VWyutqRf-sVDmm4FMnL-52" value="&lt;h1&gt;平台用户明细&lt;/h1&gt;" style="text;html=1;strokeColor=none;fillColor=none;spacing=5;spacingTop=-20;whiteSpace=wrap;overflow=hidden;rounded=0;fontStyle=4;verticalAlign=top;spacingBottom=-1;" parent="1" vertex="1">
          <mxGeometry x="120" y="820" width="190" height="120" as="geometry" />
        </mxCell>
        <mxCell id="8VWyutqRf-sVDmm4FMnL-57" style="edgeStyle=orthogonalEdgeStyle;rounded=0;orthogonalLoop=1;jettySize=auto;html=1;entryX=0;entryY=0.5;entryDx=0;entryDy=0;fontSize=20;" parent="1" source="8VWyutqRf-sVDmm4FMnL-55" target="8VWyutqRf-sVDmm4FMnL-6" edge="1">
          <mxGeometry relative="1" as="geometry" />
        </mxCell>
        <mxCell id="8VWyutqRf-sVDmm4FMnL-55" value="认证用户" style="rounded=0;whiteSpace=wrap;html=1;" parent="1" vertex="1">
          <mxGeometry x="117" y="1120" width="120" height="60" as="geometry" />
        </mxCell>
        <mxCell id="8VWyutqRf-sVDmm4FMnL-59" value="管理UI页面前台" style="rounded=0;whiteSpace=wrap;html=1;" parent="1" vertex="1">
          <mxGeometry x="460" y="1730" width="120" height="60" as="geometry" />
        </mxCell>
        <mxCell id="8VWyutqRf-sVDmm4FMnL-66" value="&lt;h1&gt;平台主要页面&lt;/h1&gt;" style="text;html=1;strokeColor=none;fillColor=none;spacing=5;spacingTop=-20;whiteSpace=wrap;overflow=hidden;rounded=0;fontStyle=4;verticalAlign=top;spacingBottom=-1;" parent="1" vertex="1">
          <mxGeometry x="120" y="1506" width="190" height="120" as="geometry" />
        </mxCell>
        <mxCell id="8VWyutqRf-sVDmm4FMnL-67" value="配置UI页面后台" style="rounded=0;whiteSpace=wrap;html=1;" parent="1" vertex="1">
          <mxGeometry x="600" y="1730" width="120" height="60" as="geometry" />
        </mxCell>
        <mxCell id="4_Ub2ZLIVFQ_gceRHqey-10" style="edgeStyle=orthogonalEdgeStyle;rounded=0;orthogonalLoop=1;jettySize=auto;html=1;exitX=0.5;exitY=1;exitDx=0;exitDy=0;entryX=0.5;entryY=0;entryDx=0;entryDy=0;" parent="1" source="TGvNDC-5U8pAqfdIaPa_-1" target="4_Ub2ZLIVFQ_gceRHqey-3" edge="1">
          <mxGeometry relative="1" as="geometry" />
        </mxCell>
        <mxCell id="4_Ub2ZLIVFQ_gceRHqey-13" style="edgeStyle=orthogonalEdgeStyle;rounded=0;orthogonalLoop=1;jettySize=auto;html=1;exitX=0.5;exitY=1;exitDx=0;exitDy=0;entryX=0.5;entryY=0;entryDx=0;entryDy=0;" parent="1" source="TGvNDC-5U8pAqfdIaPa_-1" target="4_Ub2ZLIVFQ_gceRHqey-4" edge="1">
          <mxGeometry relative="1" as="geometry" />
        </mxCell>
        <mxCell id="4_Ub2ZLIVFQ_gceRHqey-16" style="edgeStyle=orthogonalEdgeStyle;rounded=0;orthogonalLoop=1;jettySize=auto;html=1;exitX=0.5;exitY=1;exitDx=0;exitDy=0;" parent="1" source="TGvNDC-5U8pAqfdIaPa_-1" target="4_Ub2ZLIVFQ_gceRHqey-14" edge="1">
          <mxGeometry relative="1" as="geometry" />
        </mxCell>
        <mxCell id="TGvNDC-5U8pAqfdIaPa_-1" value="运维平台模块" style="rounded=0;whiteSpace=wrap;html=1;" parent="1" vertex="1">
          <mxGeometry x="356" y="1962" width="120" height="60" as="geometry" />
        </mxCell>
        <mxCell id="4_Ub2ZLIVFQ_gceRHqey-1" value="&lt;h1&gt;运维用户&lt;/h1&gt;" style="text;html=1;strokeColor=none;fillColor=none;spacing=5;spacingTop=-20;whiteSpace=wrap;overflow=hidden;rounded=0;fontStyle=4;verticalAlign=top;spacingBottom=-1;" parent="1" vertex="1">
          <mxGeometry x="105" y="1917" width="190" height="120" as="geometry" />
        </mxCell>
        <mxCell id="4_Ub2ZLIVFQ_gceRHqey-2" value="用户管理" style="rounded=0;whiteSpace=wrap;html=1;" parent="1" vertex="1">
          <mxGeometry x="102" y="2167" width="120" height="60" as="geometry" />
        </mxCell>
        <mxCell id="4_Ub2ZLIVFQ_gceRHqey-8" style="edgeStyle=orthogonalEdgeStyle;rounded=0;orthogonalLoop=1;jettySize=auto;html=1;exitX=0.5;exitY=1;exitDx=0;exitDy=0;entryX=0.5;entryY=0;entryDx=0;entryDy=0;" parent="1" source="4_Ub2ZLIVFQ_gceRHqey-3" target="4_Ub2ZLIVFQ_gceRHqey-7" edge="1">
          <mxGeometry relative="1" as="geometry" />
        </mxCell>
        <mxCell id="4_Ub2ZLIVFQ_gceRHqey-9" style="edgeStyle=orthogonalEdgeStyle;rounded=0;orthogonalLoop=1;jettySize=auto;html=1;exitX=0.5;exitY=1;exitDx=0;exitDy=0;entryX=0.5;entryY=0;entryDx=0;entryDy=0;" parent="1" source="4_Ub2ZLIVFQ_gceRHqey-3" target="4_Ub2ZLIVFQ_gceRHqey-5" edge="1">
          <mxGeometry relative="1" as="geometry" />
        </mxCell>
        <mxCell id="4_Ub2ZLIVFQ_gceRHqey-3" value="资源管理" style="rounded=0;whiteSpace=wrap;html=1;" parent="1" vertex="1">
          <mxGeometry x="513" y="2063" width="120" height="60" as="geometry" />
        </mxCell>
        <mxCell id="4_Ub2ZLIVFQ_gceRHqey-4" value="任务管理" style="rounded=0;whiteSpace=wrap;html=1;" parent="1" vertex="1">
          <mxGeometry x="356" y="2063" width="120" height="60" as="geometry" />
        </mxCell>
        <mxCell id="4_Ub2ZLIVFQ_gceRHqey-5" value="容器管理" style="rounded=0;whiteSpace=wrap;html=1;" parent="1" vertex="1">
          <mxGeometry x="606" y="2167" width="120" height="60" as="geometry" />
        </mxCell>
        <mxCell id="4_Ub2ZLIVFQ_gceRHqey-7" value="镜像管理" style="rounded=0;whiteSpace=wrap;html=1;" parent="1" vertex="1">
          <mxGeometry x="427" y="2167" width="120" height="60" as="geometry" />
        </mxCell>
        <mxCell id="4_Ub2ZLIVFQ_gceRHqey-17" style="edgeStyle=orthogonalEdgeStyle;rounded=0;orthogonalLoop=1;jettySize=auto;html=1;exitX=0.5;exitY=1;exitDx=0;exitDy=0;entryX=0.5;entryY=0;entryDx=0;entryDy=0;" parent="1" source="4_Ub2ZLIVFQ_gceRHqey-14" target="4_Ub2ZLIVFQ_gceRHqey-2" edge="1">
          <mxGeometry relative="1" as="geometry" />
        </mxCell>
        <mxCell id="4_Ub2ZLIVFQ_gceRHqey-19" style="edgeStyle=orthogonalEdgeStyle;rounded=0;orthogonalLoop=1;jettySize=auto;html=1;exitX=0.5;exitY=1;exitDx=0;exitDy=0;entryX=0.5;entryY=0;entryDx=0;entryDy=0;" parent="1" source="4_Ub2ZLIVFQ_gceRHqey-14" target="4_Ub2ZLIVFQ_gceRHqey-15" edge="1">
          <mxGeometry relative="1" as="geometry" />
        </mxCell>
        <mxCell id="4_Ub2ZLIVFQ_gceRHqey-14" value="平台管理" style="rounded=0;whiteSpace=wrap;html=1;" parent="1" vertex="1">
          <mxGeometry x="200" y="2063" width="120" height="60" as="geometry" />
        </mxCell>
        <mxCell id="4_Ub2ZLIVFQ_gceRHqey-15" value="战队管理" style="rounded=0;whiteSpace=wrap;html=1;" parent="1" vertex="1">
          <mxGeometry x="265" y="2167" width="120" height="60" as="geometry" />
        </mxCell>
        <mxCell id="2L9i-u0wnTsDgegDjbHF-1" value="" style="rounded=0;whiteSpace=wrap;html=1;" vertex="1" parent="1">
          <mxGeometry x="62" y="2306" width="700.5" height="544" as="geometry" />
        </mxCell>
        <mxCell id="2L9i-u0wnTsDgegDjbHF-2" value="核心业务功能&lt;br&gt;（比赛）" style="rounded=0;whiteSpace=wrap;html=1;" vertex="1" parent="1">
          <mxGeometry x="356" y="2561" width="120" height="62" as="geometry" />
        </mxCell>
        <mxCell id="2L9i-u0wnTsDgegDjbHF-3" value="&lt;h1&gt;业务逻辑&lt;/h1&gt;" style="text;html=1;strokeColor=none;fillColor=none;spacing=5;spacingTop=-20;whiteSpace=wrap;overflow=hidden;rounded=0;fontStyle=4;verticalAlign=top;spacingBottom=-1;" vertex="1" parent="1">
          <mxGeometry x="91" y="2332" width="190" height="120" as="geometry" />
        </mxCell>
        <mxCell id="2L9i-u0wnTsDgegDjbHF-11" value="容器启动关闭(支撑)" style="rounded=0;whiteSpace=wrap;html=1;" vertex="1" parent="1">
          <mxGeometry x="232" y="2668" width="120" height="60" as="geometry" />
        </mxCell>
        <mxCell id="2L9i-u0wnTsDgegDjbHF-13" value="赛事监管(保障)" style="rounded=0;whiteSpace=wrap;html=1;" vertex="1" parent="1">
          <mxGeometry x="453" y="2668" width="120" height="60" as="geometry" />
        </mxCell>
        <mxCell id="2L9i-u0wnTsDgegDjbHF-20" style="edgeStyle=orthogonalEdgeStyle;rounded=0;orthogonalLoop=1;jettySize=auto;html=1;exitX=0.5;exitY=1;exitDx=0;exitDy=0;" edge="1" parent="1" source="2L9i-u0wnTsDgegDjbHF-16" target="2L9i-u0wnTsDgegDjbHF-2">
          <mxGeometry relative="1" as="geometry" />
        </mxCell>
        <mxCell id="2L9i-u0wnTsDgegDjbHF-16" value="比赛模块" style="rounded=0;whiteSpace=wrap;html=1;" vertex="1" parent="1">
          <mxGeometry x="356" y="2467" width="120" height="60" as="geometry" />
        </mxCell>
        <mxCell id="2L9i-u0wnTsDgegDjbHF-19" style="edgeStyle=orthogonalEdgeStyle;rounded=0;orthogonalLoop=1;jettySize=auto;html=1;exitX=0.5;exitY=1;exitDx=0;exitDy=0;" edge="1" parent="1" source="2L9i-u0wnTsDgegDjbHF-17" target="2L9i-u0wnTsDgegDjbHF-16">
          <mxGeometry relative="1" as="geometry">
            <Array as="points">
              <mxPoint x="656" y="2418" />
              <mxPoint x="416" y="2418" />
            </Array>
          </mxGeometry>
        </mxCell>
        <mxCell id="2L9i-u0wnTsDgegDjbHF-17" value="平台" style="rounded=0;whiteSpace=wrap;html=1;" vertex="1" parent="1">
          <mxGeometry x="596" y="2336" width="120" height="60" as="geometry" />
        </mxCell>
        <mxCell id="2L9i-u0wnTsDgegDjbHF-21" value="" style="endArrow=classic;html=1;rounded=0;exitX=0.5;exitY=1;exitDx=0;exitDy=0;entryX=0.5;entryY=0;entryDx=0;entryDy=0;" edge="1" parent="1" source="2L9i-u0wnTsDgegDjbHF-2" target="2L9i-u0wnTsDgegDjbHF-11">
          <mxGeometry width="50" height="50" relative="1" as="geometry">
            <mxPoint x="597" y="2476" as="sourcePoint" />
            <mxPoint x="647" y="2426" as="targetPoint" />
          </mxGeometry>
        </mxCell>
        <mxCell id="2L9i-u0wnTsDgegDjbHF-22" value="" style="endArrow=classic;html=1;rounded=0;exitX=0.5;exitY=1;exitDx=0;exitDy=0;entryX=0.5;entryY=0;entryDx=0;entryDy=0;" edge="1" parent="1" source="2L9i-u0wnTsDgegDjbHF-2" target="2L9i-u0wnTsDgegDjbHF-13">
          <mxGeometry width="50" height="50" relative="1" as="geometry">
            <mxPoint x="597" y="2476" as="sourcePoint" />
            <mxPoint x="647" y="2426" as="targetPoint" />
          </mxGeometry>
        </mxCell>
      </root>
    </mxGraphModel>
  </diagram>
</mxfile>
